<?xml version="1.0" encoding="iso-8859-1"?>
<!-- Generator: Adobe Illustrator 19.0.0, SVG Export Plug-In . SVG Version: 6.00 Build 0)  -->
<svg version="1.1" id="Capa_1" xmlns="http://www.w3.org/2000/svg" xmlns:xlink="http://www.w3.org/1999/xlink" x="0px" y="0px"
	 viewBox="0 0 463 463" style="enable-background:new 0 0 463 463;" xml:space="preserve">
<g>
	<path d="M289,24.076V7.5c0-4.142-3.357-7.5-7.5-7.5S274,3.358,274,7.5V24h-10V7.5c0-4.142-3.357-7.5-7.5-7.5S249,3.358,249,7.5V24
		h-10V7.5c0-4.142-3.357-7.5-7.5-7.5S224,3.358,224,7.5V24h-10V7.5c0-4.142-3.357-7.5-7.5-7.5S199,3.358,199,7.5V24h-10V7.5
		c0-4.142-3.357-7.5-7.5-7.5S174,3.358,174,7.5v16.576c-7.845,0.757-14,7.383-14,15.424v119.044
		c0,12.578,3.688,24.758,10.665,35.224l5.416,8.124l7.097,198.733c0.528,14.748,10.968,26.722,24.822,29.671v9.204
		c0,12.958,10.542,23.5,23.5,23.5s23.5-10.542,23.5-23.5v-9.204c13.855-2.949,24.295-14.923,24.821-29.672l7.098-198.732
		l5.416-8.124C299.313,183.303,303,171.123,303,158.544V39.5C303,31.459,296.845,24.833,289,24.076z M199,39v8.5
		c0,4.142,3.357,7.5,7.5,7.5s7.5-3.358,7.5-7.5V39h10v8.5c0,4.142,3.357,7.5,7.5,7.5s7.5-3.358,7.5-7.5V39h10v8.5
		c0,4.142,3.357,7.5,7.5,7.5s7.5-3.358,7.5-7.5V39h10v8.5c0,4.142,3.357,7.5,7.5,7.5c2.783,0,5.206-1.519,6.5-3.769V72H175V51.231
		c1.294,2.25,3.717,3.769,6.5,3.769c4.143,0,7.5-3.358,7.5-7.5V39H199z M231.5,448c-4.687,0-8.5-3.813-8.5-8.5V431h17v8.5
		C240,444.187,236.187,448,231.5,448z M264.831,400.089C264.513,409.011,257.27,416,248.342,416h-33.684
		c-8.928,0-16.171-6.989-16.49-15.911L191.272,207h80.455L264.831,400.089z M279.854,185.448L275.486,192h-87.973l-4.368-6.552
		c-5.329-7.994-8.146-17.296-8.146-26.903V87h113v71.544C288,168.151,285.184,177.454,279.854,185.448z"/>
	<path d="M231.5,112c-12.958,0-23.5,10.542-23.5,23.5v24c0,12.958,10.542,23.5,23.5,23.5s23.5-10.542,23.5-23.5v-24
		C255,122.542,244.458,112,231.5,112z M231.5,127c4.687,0,8.5,3.813,8.5,8.5s-3.813,8.5-8.5,8.5s-8.5-3.813-8.5-8.5
		S226.813,127,231.5,127z M231.5,168c-4.687,0-8.5-3.813-8.5-8.5v-2.097c2.638,1.027,5.503,1.597,8.5,1.597s5.862-0.57,8.5-1.597
		v2.097C240,164.187,236.187,168,231.5,168z"/>
</g>
<g>
</g>
<g>
</g>
<g>
</g>
<g>
</g>
<g>
</g>
<g>
</g>
<g>
</g>
<g>
</g>
<g>
</g>
<g>
</g>
<g>
</g>
<g>
</g>
<g>
</g>
<g>
</g>
<g>
</g>
</svg>
