<?xml version="1.0" encoding="iso-8859-1"?>
<!-- Generator: Adobe Illustrator 19.0.0, SVG Export Plug-In . SVG Version: 6.00 Build 0)  -->
<svg version="1.1" id="Capa_1" xmlns="http://www.w3.org/2000/svg" xmlns:xlink="http://www.w3.org/1999/xlink" x="0px" y="0px"
	 viewBox="0 0 490 490" style="enable-background:f3f4f6;" xml:space="preserve">
<g>
	<g>
		<g>
			<path d="M392.851,423.1c-1.9-28-11.7-54.4-27.6-76.2v60.7c0,26.1-21,47.1-47.1,47.1h-146.2c-26.1,0-47.1-21-47.1-47.1v-60.7
				c-17.5,24.5-28,54.1-28,86.3c0,15.9,2.3,31.1,7,45.5c2.3,6.6,8.2,11.3,15.2,11.3h250.8c7,0,13.2-4.7,15.2-11.3
				C391.651,461.2,394.051,442.5,392.851,423.1z"/>
			<path d="M318.251,54.9h0.4V18.3c0-10.1-8.2-18.3-18.3-18.3s-18.3,8.2-18.3,18.3v36.9h36.2V54.9z"/>
			<path d="M318.251,75.1h-146.3c-15.2,0-27.2,12.1-27.2,27.2v305.6c0,15.2,12.1,27.2,27.2,27.2h146.2c15.2,0,27.2-12.1,27.2-27.2
				v-306C345.451,87.1,332.951,75.1,318.251,75.1z M179.351,109.3h131.4v108.5h-131.4V109.3z M202.351,393.2h-22.2
				c-5.4,0-10.1-4.3-10.1-10.1c0-5.4,4.3-10.1,10.1-10.1h22.2c5.4,0,10.1,4.3,10.1,10.1C212.051,388.5,207.751,393.2,202.351,393.2z
				 M202.351,352.3h-22.2c-5.4,0-10.1-4.3-10.1-10.1c0-5.4,4.3-10.1,10.1-10.1h22.2c5.4,0,10.1,4.3,10.1,10.1
				C212.051,347.7,207.751,352.3,202.351,352.3z M202.351,311.5h-22.2c-5.4,0-10.1-4.3-10.1-10.1c0-5.8,4.3-10.1,10.1-10.1h22.2
				c5.4,0,10.1,4.3,10.1,10.1C212.451,307.2,207.751,311.5,202.351,311.5z M202.351,270.7h-22.2c-5.4,0-10.1-4.3-10.1-10.1
				c0-5.4,4.3-10.1,10.1-10.1h22.2c5.4,0,10.1,4.3,10.1,10.1C212.051,266,207.751,270.7,202.351,270.7z M256.351,393.2h-22.2
				c-5.4,0-10.1-4.3-10.1-10.1c0-5.4,4.3-10.1,10.1-10.1h22.2c5.4,0,10.1,4.3,10.1,10.1C266.051,388.5,261.851,393.2,256.351,393.2z
				 M256.351,352.3h-22.2c-5.4,0-10.1-4.3-10.1-10.1c0-5.4,4.3-10.1,10.1-10.1h22.2c5.4,0,10.1,4.3,10.1,10.1
				C266.051,347.7,261.851,352.3,256.351,352.3z M256.351,311.5h-22.2c-5.4,0-10.1-4.3-10.1-10.1c0-5.8,4.3-10.1,10.1-10.1h22.2
				c5.4,0,10.1,4.3,10.1,10.1S261.851,311.5,256.351,311.5z M256.351,270.7h-22.2c-5.4,0-10.1-4.3-10.1-10.1
				c0-5.4,4.3-10.1,10.1-10.1h22.2c5.4,0,10.1,4.3,10.1,10.1C266.051,266,261.851,270.7,256.351,270.7z M310.451,393.2h-22.6
				c-5.4,0-10.1-4.3-10.1-10.1c0-5.4,4.3-10.1,10.1-10.1h22.2c5.4,0,10.1,4.3,10.1,10.1C320.151,388.5,315.851,393.2,310.451,393.2z
				 M310.451,352.3h-22.6c-5.4,0-10.1-4.3-10.1-10.1c0-5.4,4.3-10.1,10.1-10.1h22.2c5.4,0,10.1,4.3,10.1,10.1
				C320.151,347.7,315.851,352.3,310.451,352.3z M310.451,311.5h-22.6c-5.4,0-10.1-4.3-10.1-10.1c0-5.8,4.3-10.1,10.1-10.1h22.2
				c5.4,0,10.1,4.3,10.1,10.1S315.851,311.5,310.451,311.5z M310.451,270.7h-22.6c-5.4,0-10.1-4.3-10.1-10.1
				c0-5.4,4.3-10.1,10.1-10.1h22.2c5.4,0,10.1,4.3,10.1,10.1C320.151,266,315.851,270.7,310.451,270.7z"/>
		</g>
	</g>
</g>
<g>
</g>
<g>
</g>
<g>
</g>
<g>
</g>
<g>
</g>
<g>
</g>
<g>
</g>
<g>
</g>
<g>
</g>
<g>
</g>
<g>
</g>
<g>
</g>
<g>
</g>
<g>
</g>
<g>
</g>
</svg>
